<svg width="18" height="20" viewBox="0 0 18 20" fill="none" xmlns="http://www.w3.org/2000/svg">
<path d="M13.3636 1V4M4.63636 1V4M1 7H17M5.72727 10.75H8.27273L6.81818 12.625C7.05756 12.6246 7.29334 12.6851 7.50461 12.8012C7.71588 12.9172 7.8961 13.0853 8.02929 13.2904C8.16248 13.4955 8.24451 13.7314 8.26812 13.9771C8.29173 14.2227 8.25619 14.4706 8.16464 14.6987C8.07308 14.9268 7.92836 15.128 7.7433 15.2846C7.55824 15.4412 7.33856 15.5483 7.10376 15.5963C6.86895 15.6444 6.62628 15.6319 6.39726 15.56C6.16825 15.4882 5.95997 15.3591 5.79091 15.1844M10.4545 11.875L11.9091 10.75V15.625M1.72727 2.5H16.2727C16.6744 2.5 17 2.83579 17 3.25V18.25C17 18.6642 16.6744 19 16.2727 19H1.72727C1.32561 19 1 18.6642 1 18.25V3.25C1 2.83579 1.32561 2.5 1.72727 2.5Z" stroke="#002F55" stroke-width="1.5" stroke-linecap="round" stroke-linejoin="round"/>
</svg>
