<svg width="31" height="27" viewBox="0 0 31 27" fill="none" xmlns="http://www.w3.org/2000/svg">
<path d="M8.26481 18.2317C8.35476 18.9474 8.53466 19.6388 8.79634 20.3464C8.85358 20.5009 8.91083 20.6473 8.9926 20.7694C9.04984 20.9158 9.11526 21.0622 9.19704 21.2248C9.35241 21.5502 9.5732 21.9243 9.81034 22.2741C10.0557 22.6482 10.3337 23.0142 10.579 23.2989C10.8734 23.6486 11.1433 23.9171 11.4131 24.1611C11.683 24.4051 11.9692 24.6409 12.3126 24.9094C12.3944 24.9744 12.4844 25.0232 12.5661 25.072C12.6152 25.1046 12.6724 25.129 12.7133 25.1615C13.5719 25.7715 14.5614 26.227 15.5999 26.5279C16.7039 26.8533 17.8651 27.0078 18.9609 26.9997C19.7214 26.9916 20.2774 26.9509 20.8253 26.8533C21.3732 26.7638 21.9047 26.6174 22.5998 26.4059C22.8042 26.3409 23.1068 26.2351 23.393 26.1131C23.6792 25.9911 23.9654 25.861 24.1535 25.7553C24.5051 25.5844 25.0203 25.2754 25.3556 25.0639C26.0916 24.5921 26.8112 23.9821 27.449 23.307C28.1032 22.6157 28.692 21.843 29.1499 21.0622C29.3625 20.7043 29.567 20.3139 29.7469 19.9235C29.9268 19.5249 30.0903 19.1182 30.2293 18.7278C30.581 17.7274 30.7854 16.8164 30.8999 15.8973C31.0144 14.9864 31.0225 14.0673 30.9653 13.0587C30.9408 12.53 30.8754 12.2047 30.8099 11.8468C30.7854 11.7085 30.7527 11.5621 30.7282 11.4076C30.6873 11.1717 30.6382 10.9521 30.5891 10.7487C30.5401 10.5454 30.4747 10.3339 30.3929 10.1062L30.074 9.16269C29.9513 8.82922 29.8205 8.52827 29.6733 8.22733C29.5343 7.93452 29.3789 7.64984 29.2072 7.34076C28.5366 6.14512 27.6044 4.95762 26.5004 3.93278C25.4619 2.96488 24.2598 2.12712 22.9678 1.53337C22.1255 1.15109 21.1933 0.785077 20.2447 0.516668C19.4352 0.288927 18.6011 0.11812 17.8078 0.0693188L17.1128 0.00424999C16.3114 -0.00388362 15.6245 -0.00388288 14.9376 0.0367852C14.2343 0.0855868 13.5474 0.175056 12.7624 0.345862C12.4435 0.419064 12.0591 0.516668 11.6748 0.638672C11.2659 0.760676 10.8652 0.907081 10.5381 1.02908C10.2356 1.14296 9.90847 1.28123 9.5732 1.43577C9.27881 1.57404 8.97624 1.71231 8.71457 1.85871C8.19121 2.14339 7.69239 2.45247 7.20993 2.78594C6.73564 3.11942 6.26952 3.48543 5.81158 3.88398C5.20646 4.41266 4.64221 4.98202 4.12704 5.5839C3.61186 6.19392 3.13757 6.84462 2.70417 7.52784C2.51609 7.79625 2.36889 8.12159 2.18899 8.39C2.04998 8.64214 1.91096 8.90242 1.7883 9.15456C1.66563 9.41484 1.54298 9.67511 1.42849 9.94352C1.03598 10.8382 0.73341 11.7817 0.504443 12.7415C0.25912 13.75 0.111929 14.7667 0.0383321 15.7672C-0.0434421 16.9303 0.00562049 18.2642 0.185524 19.5656C0.357249 20.81 0.64346 22.0219 1.03598 23.0305L1.17499 23.3965C1.27312 23.6568 1.37125 23.9008 1.49391 24.1855L1.63293 24.4864L4.84665 23.1037L4.71581 22.8028C4.59315 22.5099 4.46231 22.1521 4.34783 21.8186C4.20064 21.3712 4.0698 20.9483 4.00438 20.7124C3.70999 19.6306 3.54644 18.5001 3.52191 17.3532C3.49738 16.2145 3.60368 15.0514 3.849 13.9209C4.27423 11.9444 5.0838 10.1631 6.17957 8.66654C7.30805 7.12116 8.7391 5.86858 10.3664 4.99015C10.808 4.75428 11.2659 4.5428 11.732 4.35573C12.19 4.17679 12.6643 4.02225 13.1467 3.90838L13.7355 3.76198C14.7086 3.56677 15.7798 3.49357 16.8838 3.55864C17.9223 3.62371 18.9772 3.81891 19.9749 4.15239C21.9047 4.80308 23.4584 5.86045 24.636 7.10489C25.9853 8.52827 26.8439 10.1957 27.1873 11.7573L27.2282 11.9444C27.2528 12.0745 27.2855 12.1965 27.3018 12.3104C27.3427 12.5707 27.3591 12.7008 27.3754 12.8147C27.4327 13.2214 27.4736 13.4572 27.4736 14.1405C27.4817 15.572 27.1873 17.0198 26.6067 18.3374C26.0507 19.59 25.2329 20.7205 24.1699 21.599C23.5157 22.1358 22.7961 22.5669 22.0519 22.876C20.4655 23.5348 18.7646 23.673 17.1945 23.3396C15.6327 23.0061 14.2016 22.209 13.1794 20.9808C12.7706 20.4847 12.4189 19.9153 12.1491 19.2809C11.7239 18.2805 11.593 17.1255 11.7647 16.0193C11.9201 14.962 12.3535 13.9534 13.065 13.1726C13.6455 12.5463 14.3488 12.1071 15.1093 11.8874C15.8616 11.676 16.6548 11.676 17.4399 11.9281C18.2494 12.1884 18.7646 12.6276 19.059 13.1156C19.427 13.7338 19.4679 14.4251 19.3043 14.9376L19.1817 15.3442L22.7715 15.572L22.8206 15.2792C22.8451 15.149 22.8615 15.0189 22.8778 14.8969C22.886 14.7749 22.9024 14.6447 22.9024 14.5146C22.9596 12.7415 22.2645 11.2449 21.1442 10.155C20.5391 9.56124 19.8113 9.09762 19.0099 8.76414C18.2085 8.4388 17.3336 8.25173 16.434 8.21919C14.4715 8.15413 12.3862 8.86175 10.7099 10.5617C10.0066 11.2774 9.44235 12.1396 9.0253 13.0506C8.58372 14.0185 8.31388 15.0433 8.2321 15.9949C8.16669 16.7839 8.17486 17.5159 8.26481 18.2317Z" fill="#9CB7D9"/>
</svg>
