<svg width="185" height="36" viewBox="0 0 185 36" fill="none" xmlns="http://www.w3.org/2000/svg">
<mask id="path-1-outside-1_1976_1067" maskUnits="userSpaceOnUse" x="0" y="0" width="185" height="36" fill="black">
<rect fill="white" width="185" height="36"/>
<path fill-rule="evenodd" clip-rule="evenodd" d="M11 1C8.79086 1 7 2.79086 7 5V12.5L2 17.5L7 22.5V31C7 33.2091 8.79086 35 11 35H180C182.209 35 184 33.2091 184 31V5C184 2.79086 182.209 1 180 1H11Z"/>
</mask>
<path d="M7 12.5L7.70711 13.2071L8 12.9142V12.5H7ZM2 17.5L1.29289 16.7929L0.585786 17.5L1.29289 18.2071L2 17.5ZM7 22.5H8V22.0858L7.70711 21.7929L7 22.5ZM8 5C8 3.34315 9.34315 2 11 2V0C8.23858 0 6 2.23858 6 5H8ZM8 12.5V5H6V12.5H8ZM2.70711 18.2071L7.70711 13.2071L6.29289 11.7929L1.29289 16.7929L2.70711 18.2071ZM7.70711 21.7929L2.70711 16.7929L1.29289 18.2071L6.29289 23.2071L7.70711 21.7929ZM8 31V22.5H6V31H8ZM11 34C9.34314 34 8 32.6569 8 31H6C6 33.7614 8.23857 36 11 36V34ZM180 34H11V36H180V34ZM183 31C183 32.6569 181.657 34 180 34V36C182.761 36 185 33.7614 185 31H183ZM183 5V31H185V5H183ZM180 2C181.657 2 183 3.34315 183 5H185C185 2.23858 182.761 0 180 0V2ZM11 2H180V0H11V2Z" fill="#4772A7" mask="url(#path-1-outside-1_1976_1067)"/>
</svg>
