<svg width="25" height="26" viewBox="0 0 25 26" xmlns="http://www.w3.org/2000/svg">
<circle cx="12.5" cy="12.9171" r="12.5"/>
<path d="M11.5154 13.5012C10.7099 11.9471 10.7807 10.6603 10.8539 10.1584C10.8739 10.0195 10.9534 9.89837 11.0688 9.83059L12.249 9.13201C12.4226 9.02927 12.507 8.81242 12.4526 8.60912L11.6472 5.74572C11.5871 5.52062 11.3762 5.38173 11.1604 5.42499L8.50083 5.88877C8.32664 5.92248 8.19018 6.0682 8.15871 6.2541C7.94524 7.53624 7.62702 10.751 9.63058 14.6167C11.6341 18.4824 14.3524 19.8983 15.4832 20.3849C15.6474 20.4549 15.8353 20.4085 15.9544 20.2685L17.7325 18.1041C17.8808 17.9318 17.8827 17.6679 17.7368 17.494L15.8925 15.2463C15.7603 15.0891 15.5435 15.0504 15.3699 15.1531L14.19 15.8523C14.0751 15.9209 13.9369 15.9286 13.8161 15.8732C13.3792 15.6733 12.3209 15.0552 11.5154 13.5012Z"/>
</svg>
