<svg width="1400" height="81" viewBox="0 0 1400 81" fill="none" xmlns="http://www.w3.org/2000/svg">
<path d="M-1.62902e-06 57.2044L-9.52911e-06 2.88826e-06L1400 -7.4589e-05L1400 34.4487C989.5 -19.5281 410 106.812 -1.62902e-06 57.2044Z" fill="#ABA283"/>
<path d="M-1.39293e-06 48.9139L-8.14808e-06 9.06221e-07L1400 -7.65711e-05L1400 29.4561C989.5 -16.698 410 91.3322 -1.39293e-06 48.9139Z" fill="#7E775A"/>
<path d="M1400 67.153L1400 -6.01067e-07L9.5291e-06 -9.15527e-05L4.77163e-06 40.4398C410.5 -22.9243 990 125.388 1400 67.153Z" fill="#BBB397"/>
<path d="M1400 57.2044L1400 -6.01067e-07L8.11739e-06 -9.15527e-05L4.06472e-06 34.4487C410.5 -19.5281 990 106.812 1400 57.2044Z" fill="#081B2A"/>
</svg>
