<svg width="49" height="41" viewBox="0 0 49 41" xmlns="http://www.w3.org/2000/svg">
<path d="M43.7237 36.8702C44.5603 34.2766 48.4913 8.41588 48.9739 3.32055C49.1214 1.77627 48.6361 0.751254 47.6922 0.29419C46.5472 -0.260238 44.8499 0.0156265 42.8817 0.732326C40.1815 1.71407 5.67394 16.4916 3.67895 17.3489C1.79121 18.1603 0 19.042 0 20.3239C0 21.2245 0.530927 21.7303 1.98963 22.2549C3.50733 22.8013 7.33108 23.9696 9.58886 24.5971C11.7635 25.2029 14.2385 24.6782 15.6248 23.8073C17.0942 22.8851 34.0678 11.4314 35.2852 10.428C36.5025 9.42467 37.4732 10.7093 36.4784 11.7154C35.4836 12.7188 23.8354 24.1238 22.2962 25.7032C20.4299 27.6207 21.7546 29.6058 23.0068 30.4037C24.436 31.3124 34.7113 38.263 36.2612 39.38C37.8111 40.4943 39.377 41 40.817 41C42.2542 40.9973 43.0077 39.0852 43.7237 36.8702Z"/>
</svg>
