<svg width="53" height="29" viewBox="0 0 53 29" xmlns="http://www.w3.org/2000/svg">
<path d="M43.9805 16.6294C43.1236 15.6144 43.3688 15.1629 43.9805 14.2556C43.9915 14.2452 51.0651 5.07707 51.7938 1.96786L51.7982 1.96579C52.1604 0.832714 51.7983 0 50.047 0H44.2521C42.7769 0 42.0967 0.714643 41.7323 1.51421C41.7323 1.51421 38.7819 8.13864 34.608 12.4327C33.2609 13.6735 32.6381 14.0712 31.9027 14.0712C31.5405 14.0712 30.9774 13.6735 30.9774 12.5404V1.96579C30.9774 0.606928 30.5644 0 29.3431 0H20.2312C19.3059 0 18.756 0.633857 18.756 1.22421C18.756 2.51264 20.843 2.80886 21.0594 6.43386V14.2991C21.0594 16.0225 20.7259 16.3394 19.9861 16.3394C18.0162 16.3394 13.235 9.68807 10.4016 2.07557C9.82963 0.598643 9.2709 0.00207128 7.78464 0.00207128H1.98757C0.33347 0.00207128 0 0.716714 0 1.51629C0 2.929 1.9699 9.95321 9.16048 19.2332C13.9527 25.5676 20.7016 29 26.841 29C30.5313 29 30.9818 28.2377 30.9818 26.9265C30.9818 20.8738 30.6483 20.3021 32.4967 20.3021C33.3536 20.3021 34.8288 20.6998 38.2739 23.7551C42.2115 27.3781 42.8586 29 45.0626 29H50.8575C52.5094 29 53.3463 28.2377 52.8649 26.7339C51.7629 23.5708 44.3162 17.0644 43.9805 16.6294Z"/>
</svg>
