<svg width="1400" height="39" viewBox="0 0 1400 39" fill="none" xmlns="http://www.w3.org/2000/svg">
<path fill-rule="evenodd" clip-rule="evenodd" d="M1381.6 -5.83773e-05L1403.41 33.067L1409.72 23.5033L1412 25.0515L1403.41 38.0769L1379.31 1.55005L1381.6 -5.83773e-05Z" fill="#BDD0E8"/>
<path fill-rule="evenodd" clip-rule="evenodd" d="M1399.69 1.55005L1375.59 38.0769L1367 25.0515L1369.28 23.5033L1375.59 33.067L1397.4 -5.9759e-05L1399.69 1.55005Z" fill="#BDD0E8"/>
<path fill-rule="evenodd" clip-rule="evenodd" d="M1321.6 -5.83773e-05L1343.41 33.067L1349.72 23.5033L1352 25.0515L1343.41 38.0769L1319.31 1.55005L1321.6 -5.83773e-05Z" fill="#BDD0E8"/>
<path fill-rule="evenodd" clip-rule="evenodd" d="M1339.69 1.55005L1315.59 38.0769L1307 25.0515L1309.28 23.5033L1315.59 33.067L1337.4 -5.9759e-05L1339.69 1.55005Z" fill="#BDD0E8"/>
<path fill-rule="evenodd" clip-rule="evenodd" d="M1261.6 -5.83773e-05L1283.41 33.067L1289.72 23.5033L1292 25.0515L1283.41 38.0769L1259.31 1.55005L1261.6 -5.83773e-05Z" fill="#BDD0E8"/>
<path fill-rule="evenodd" clip-rule="evenodd" d="M1279.69 1.55005L1255.59 38.0769L1247 25.0515L1249.28 23.5033L1255.59 33.067L1277.4 -5.9759e-05L1279.69 1.55005Z" fill="#BDD0E8"/>
<path fill-rule="evenodd" clip-rule="evenodd" d="M1201.6 -5.83773e-05L1223.41 33.067L1229.72 23.5033L1232 25.0515L1223.41 38.0769L1199.31 1.55005L1201.6 -5.83773e-05Z" fill="#BDD0E8"/>
<path fill-rule="evenodd" clip-rule="evenodd" d="M1219.69 1.55005L1195.59 38.0769L1187 25.0515L1189.28 23.5033L1195.59 33.067L1217.4 -5.9759e-05L1219.69 1.55005Z" fill="#BDD0E8"/>
<path fill-rule="evenodd" clip-rule="evenodd" d="M1141.6 -5.83773e-05L1163.41 33.067L1169.72 23.5033L1172 25.0515L1163.41 38.0769L1139.31 1.55005L1141.6 -5.83773e-05Z" fill="#BDD0E8"/>
<path fill-rule="evenodd" clip-rule="evenodd" d="M1159.69 1.55005L1135.59 38.0769L1127 25.0515L1129.28 23.5033L1135.59 33.067L1157.4 -5.9759e-05L1159.69 1.55005Z" fill="#BDD0E8"/>
<path fill-rule="evenodd" clip-rule="evenodd" d="M1081.6 -5.83773e-05L1103.41 33.067L1109.72 23.5033L1112 25.0515L1103.41 38.0769L1079.31 1.55005L1081.6 -5.83773e-05Z" fill="#BDD0E8"/>
<path fill-rule="evenodd" clip-rule="evenodd" d="M1099.69 1.55005L1075.59 38.0769L1067 25.0515L1069.28 23.5033L1075.59 33.067L1097.4 -5.9759e-05L1099.69 1.55005Z" fill="#BDD0E8"/>
<path fill-rule="evenodd" clip-rule="evenodd" d="M1021.6 2.65782e-06L1043.41 33.067L1049.72 23.5033L1052 25.0515L1043.41 38.0769L1019.31 1.55011L1021.6 2.65782e-06Z" fill="#BDD0E8"/>
<path fill-rule="evenodd" clip-rule="evenodd" d="M1039.69 1.55011L1015.59 38.0769L1007 25.0515L1009.28 23.5033L1015.59 33.067L1037.4 1.2762e-06L1039.69 1.55011Z" fill="#BDD0E8"/>
<path fill-rule="evenodd" clip-rule="evenodd" d="M961.598 2.65782e-06L983.407 33.067L989.717 23.5033L992 25.0515L983.407 38.0769L959.315 1.55011L961.598 2.65782e-06Z" fill="#BDD0E8"/>
<path fill-rule="evenodd" clip-rule="evenodd" d="M979.687 1.55011L955.593 38.0769L947 25.0515L949.285 23.5033L955.593 33.067L977.402 1.2762e-06L979.687 1.55011Z" fill="#BDD0E8"/>
<path fill-rule="evenodd" clip-rule="evenodd" d="M901.598 2.65782e-06L923.407 33.067L929.717 23.5033L932 25.0515L923.407 38.0769L899.315 1.55011L901.598 2.65782e-06Z" fill="#BDD0E8"/>
<path fill-rule="evenodd" clip-rule="evenodd" d="M919.687 1.55011L895.593 38.0769L887 25.0515L889.285 23.5033L895.593 33.067L917.402 1.2762e-06L919.687 1.55011Z" fill="#BDD0E8"/>
<path fill-rule="evenodd" clip-rule="evenodd" d="M841.598 2.65782e-06L863.407 33.067L869.717 23.5033L872 25.0515L863.407 38.0769L839.315 1.55011L841.598 2.65782e-06Z" fill="#BDD0E8"/>
<path fill-rule="evenodd" clip-rule="evenodd" d="M859.687 1.55011L835.593 38.0769L827 25.0515L829.285 23.5033L835.593 33.067L857.402 1.2762e-06L859.687 1.55011Z" fill="#BDD0E8"/>
<path fill-rule="evenodd" clip-rule="evenodd" d="M781.598 2.65782e-06L803.407 33.067L809.717 23.5033L812 25.0515L803.407 38.0769L779.315 1.55011L781.598 2.65782e-06Z" fill="#BDD0E8"/>
<path fill-rule="evenodd" clip-rule="evenodd" d="M799.687 1.55011L775.593 38.0769L767 25.0515L769.285 23.5033L775.593 33.067L797.402 1.2762e-06L799.687 1.55011Z" fill="#BDD0E8"/>
<path fill-rule="evenodd" clip-rule="evenodd" d="M721.598 2.65782e-06L743.407 33.067L749.717 23.5033L752 25.0515L743.407 38.0769L719.315 1.55011L721.598 2.65782e-06Z" fill="#BDD0E8"/>
<path fill-rule="evenodd" clip-rule="evenodd" d="M739.687 1.55011L715.593 38.0769L707 25.0515L709.285 23.5033L715.593 33.067L737.402 1.2762e-06L739.687 1.55011Z" fill="#BDD0E8"/>
<path fill-rule="evenodd" clip-rule="evenodd" d="M661.598 2.65782e-06L683.407 33.067L689.717 23.5033L692 25.0515L683.407 38.0769L659.315 1.55011L661.598 2.65782e-06Z" fill="#BDD0E8"/>
<path fill-rule="evenodd" clip-rule="evenodd" d="M679.687 1.55011L655.593 38.0769L647 25.0515L649.285 23.5033L655.593 33.067L677.402 1.2762e-06L679.687 1.55011Z" fill="#BDD0E8"/>
<path fill-rule="evenodd" clip-rule="evenodd" d="M601.598 2.65782e-06L623.407 33.067L629.717 23.5033L632 25.0515L623.407 38.0769L599.315 1.55011L601.598 2.65782e-06Z" fill="#BDD0E8"/>
<path fill-rule="evenodd" clip-rule="evenodd" d="M619.687 1.55011L595.593 38.0769L587 25.0515L589.285 23.5033L595.593 33.067L617.402 1.2762e-06L619.687 1.55011Z" fill="#BDD0E8"/>
<path fill-rule="evenodd" clip-rule="evenodd" d="M541.598 2.65782e-06L563.407 33.067L569.717 23.5033L572 25.0515L563.407 38.0769L539.315 1.55011L541.598 2.65782e-06Z" fill="#BDD0E8"/>
<path fill-rule="evenodd" clip-rule="evenodd" d="M559.687 1.55011L535.593 38.0769L527 25.0515L529.285 23.5033L535.593 33.067L557.402 1.2762e-06L559.687 1.55011Z" fill="#BDD0E8"/>
<path fill-rule="evenodd" clip-rule="evenodd" d="M481.598 2.65782e-06L503.407 33.067L509.717 23.5033L512 25.0515L503.407 38.0769L479.315 1.55011L481.598 2.65782e-06Z" fill="#BDD0E8"/>
<path fill-rule="evenodd" clip-rule="evenodd" d="M499.687 1.55011L475.593 38.0769L467 25.0515L469.285 23.5033L475.593 33.067L497.402 1.2762e-06L499.687 1.55011Z" fill="#BDD0E8"/>
<path fill-rule="evenodd" clip-rule="evenodd" d="M421.598 2.65782e-06L443.407 33.067L449.717 23.5033L452 25.0515L443.407 38.0769L419.315 1.55011L421.598 2.65782e-06Z" fill="#BDD0E8"/>
<path fill-rule="evenodd" clip-rule="evenodd" d="M439.687 1.55011L415.593 38.0769L407 25.0515L409.285 23.5033L415.593 33.067L437.402 1.2762e-06L439.687 1.55011Z" fill="#BDD0E8"/>
<path fill-rule="evenodd" clip-rule="evenodd" d="M361.598 2.65782e-06L383.407 33.067L389.717 23.5033L392 25.0515L383.407 38.0769L359.315 1.55011L361.598 2.65782e-06Z" fill="#BDD0E8"/>
<path fill-rule="evenodd" clip-rule="evenodd" d="M379.687 1.55011L355.593 38.0769L347 25.0515L349.285 23.5033L355.593 33.067L377.402 1.2762e-06L379.687 1.55011Z" fill="#BDD0E8"/>
<path fill-rule="evenodd" clip-rule="evenodd" d="M301.598 6.3693e-05L323.407 33.0671L329.717 23.5034L332 25.0516L323.407 38.077L299.315 1.55017L301.598 6.3693e-05Z" fill="#BDD0E8"/>
<path fill-rule="evenodd" clip-rule="evenodd" d="M319.687 1.55017L295.593 38.077L287 25.0516L289.285 23.5034L295.593 33.0671L317.402 6.23114e-05L319.687 1.55017Z" fill="#BDD0E8"/>
<path fill-rule="evenodd" clip-rule="evenodd" d="M241.598 6.3693e-05L263.407 33.0671L269.717 23.5034L272 25.0516L263.407 38.077L239.315 1.55017L241.598 6.3693e-05Z" fill="#BDD0E8"/>
<path fill-rule="evenodd" clip-rule="evenodd" d="M259.687 1.55017L235.593 38.077L227 25.0516L229.285 23.5034L235.593 33.0671L257.402 6.23114e-05L259.687 1.55017Z" fill="#BDD0E8"/>
<path fill-rule="evenodd" clip-rule="evenodd" d="M181.598 6.3693e-05L203.407 33.0671L209.717 23.5034L212 25.0516L203.407 38.077L179.315 1.55017L181.598 6.3693e-05Z" fill="#BDD0E8"/>
<path fill-rule="evenodd" clip-rule="evenodd" d="M199.687 1.55017L175.593 38.077L167 25.0516L169.285 23.5034L175.593 33.0671L197.402 6.23114e-05L199.687 1.55017Z" fill="#BDD0E8"/>
<path fill-rule="evenodd" clip-rule="evenodd" d="M121.598 6.3693e-05L143.407 33.0671L149.717 23.5034L152 25.0516L143.407 38.077L119.315 1.55017L121.598 6.3693e-05Z" fill="#BDD0E8"/>
<path fill-rule="evenodd" clip-rule="evenodd" d="M139.687 1.55017L115.593 38.077L107 25.0516L109.285 23.5034L115.593 33.0671L137.402 6.23114e-05L139.687 1.55017Z" fill="#BDD0E8"/>
<path fill-rule="evenodd" clip-rule="evenodd" d="M61.598 6.3693e-05L83.4073 33.0671L89.717 23.5034L92 25.0516L83.4073 38.077L59.315 1.55017L61.598 6.3693e-05Z" fill="#BDD0E8"/>
<path fill-rule="evenodd" clip-rule="evenodd" d="M79.6869 1.55017L55.5927 38.077L47 25.0516L49.2849 23.5034L55.5927 33.0671L77.402 6.23114e-05L79.6869 1.55017Z" fill="#BDD0E8"/>
<path fill-rule="evenodd" clip-rule="evenodd" d="M1.59803 6.3693e-05L23.4073 33.0671L29.717 23.5034L32 25.0516L23.4073 38.077L-0.685009 1.55017L1.59803 6.3693e-05Z" fill="#BDD0E8"/>
<path fill-rule="evenodd" clip-rule="evenodd" d="M19.6869 1.55017L-4.40733 38.077L-13 25.0516L-10.7151 23.5034L-4.40733 33.0671L17.402 6.23114e-05L19.6869 1.55017Z" fill="#BDD0E8"/>
</svg>
